<mxfile host="app.diagrams.net" modified="2020-10-13T11:29:42.381Z" agent="5.0 (Macintosh; Intel Mac OS X 10_15_6) AppleWebKit/537.36 (KHTML, like Gecko) Chrome/86.0.4240.75 Safari/537.36" etag="iWWo_8Te8wra9MvHEogT" version="13.7.3" type="github">
  <diagram id="Sw-mZeaVOvyUN5bUzRU7" name="Page-1">
    <mxGraphModel dx="926" dy="603" grid="1" gridSize="10" guides="1" tooltips="1" connect="1" arrows="1" fold="1" page="1" pageScale="1" pageWidth="827" pageHeight="1169" math="0" shadow="0">
      <root>
        <mxCell id="0" />
        <mxCell id="1" parent="0" />
        <mxCell id="chepWARrDXGER1OWN8oZ-3" value="" style="edgeStyle=orthogonalEdgeStyle;rounded=0;orthogonalLoop=1;jettySize=auto;html=1;" edge="1" parent="1" source="chepWARrDXGER1OWN8oZ-1" target="chepWARrDXGER1OWN8oZ-2">
          <mxGeometry relative="1" as="geometry" />
        </mxCell>
        <mxCell id="chepWARrDXGER1OWN8oZ-1" value="输入URL" style="rounded=1;whiteSpace=wrap;html=1;" vertex="1" parent="1">
          <mxGeometry x="170" y="60" width="120" height="60" as="geometry" />
        </mxCell>
        <mxCell id="chepWARrDXGER1OWN8oZ-5" value="" style="edgeStyle=orthogonalEdgeStyle;rounded=0;orthogonalLoop=1;jettySize=auto;html=1;" edge="1" parent="1" source="chepWARrDXGER1OWN8oZ-2" target="chepWARrDXGER1OWN8oZ-4">
          <mxGeometry relative="1" as="geometry" />
        </mxCell>
        <mxCell id="chepWARrDXGER1OWN8oZ-2" value="DNS域名解析" style="whiteSpace=wrap;html=1;rounded=1;" vertex="1" parent="1">
          <mxGeometry x="170" y="200" width="120" height="60" as="geometry" />
        </mxCell>
        <mxCell id="chepWARrDXGER1OWN8oZ-7" value="" style="edgeStyle=orthogonalEdgeStyle;rounded=0;orthogonalLoop=1;jettySize=auto;html=1;" edge="1" parent="1" source="chepWARrDXGER1OWN8oZ-4" target="chepWARrDXGER1OWN8oZ-6">
          <mxGeometry relative="1" as="geometry" />
        </mxCell>
        <mxCell id="chepWARrDXGER1OWN8oZ-4" value="建立TCP连接" style="whiteSpace=wrap;html=1;rounded=1;" vertex="1" parent="1">
          <mxGeometry x="170" y="340" width="120" height="60" as="geometry" />
        </mxCell>
        <mxCell id="chepWARrDXGER1OWN8oZ-9" value="" style="edgeStyle=orthogonalEdgeStyle;rounded=0;orthogonalLoop=1;jettySize=auto;html=1;" edge="1" parent="1" source="chepWARrDXGER1OWN8oZ-6" target="chepWARrDXGER1OWN8oZ-8">
          <mxGeometry relative="1" as="geometry" />
        </mxCell>
        <mxCell id="chepWARrDXGER1OWN8oZ-6" value="发送HTTP Request" style="whiteSpace=wrap;html=1;rounded=1;" vertex="1" parent="1">
          <mxGeometry x="170" y="480" width="120" height="60" as="geometry" />
        </mxCell>
        <mxCell id="chepWARrDXGER1OWN8oZ-11" value="" style="edgeStyle=orthogonalEdgeStyle;rounded=0;orthogonalLoop=1;jettySize=auto;html=1;" edge="1" parent="1" source="chepWARrDXGER1OWN8oZ-8" target="chepWARrDXGER1OWN8oZ-10">
          <mxGeometry relative="1" as="geometry" />
        </mxCell>
        <mxCell id="chepWARrDXGER1OWN8oZ-8" value="Nginx 代理服务器" style="whiteSpace=wrap;html=1;rounded=1;" vertex="1" parent="1">
          <mxGeometry x="370" y="480" width="120" height="60" as="geometry" />
        </mxCell>
        <mxCell id="chepWARrDXGER1OWN8oZ-13" value="" style="edgeStyle=orthogonalEdgeStyle;rounded=0;orthogonalLoop=1;jettySize=auto;html=1;" edge="1" parent="1" source="chepWARrDXGER1OWN8oZ-10" target="chepWARrDXGER1OWN8oZ-12">
          <mxGeometry relative="1" as="geometry" />
        </mxCell>
        <mxCell id="chepWARrDXGER1OWN8oZ-10" value="具体的EndPoint" style="whiteSpace=wrap;html=1;rounded=1;" vertex="1" parent="1">
          <mxGeometry x="370" y="340" width="120" height="60" as="geometry" />
        </mxCell>
        <mxCell id="chepWARrDXGER1OWN8oZ-15" value="" style="edgeStyle=orthogonalEdgeStyle;rounded=0;orthogonalLoop=1;jettySize=auto;html=1;" edge="1" parent="1" source="chepWARrDXGER1OWN8oZ-12" target="chepWARrDXGER1OWN8oZ-14">
          <mxGeometry relative="1" as="geometry" />
        </mxCell>
        <mxCell id="chepWARrDXGER1OWN8oZ-12" value="返回Result" style="whiteSpace=wrap;html=1;rounded=1;" vertex="1" parent="1">
          <mxGeometry x="370" y="200" width="120" height="60" as="geometry" />
        </mxCell>
        <mxCell id="chepWARrDXGER1OWN8oZ-14" value="&lt;span&gt;关闭TCP&lt;/span&gt;" style="whiteSpace=wrap;html=1;rounded=1;" vertex="1" parent="1">
          <mxGeometry x="370" y="60" width="120" height="60" as="geometry" />
        </mxCell>
      </root>
    </mxGraphModel>
  </diagram>
</mxfile>
